<?xml version="1.0" standalone="no"?><!DOCTYPE svg PUBLIC "-//W3C//DTD SVG 1.1//EN" "http://www.w3.org/Graphics/SVG/1.1/DTD/svg11.dtd"><svg t="1676271742922" class="icon" viewBox="0 0 1024 1024" version="1.1" xmlns="http://www.w3.org/2000/svg" p-id="1656" xmlns:xlink="http://www.w3.org/1999/xlink" width="200" height="200"><path d="M609.792 718.336h-41.984c-123.392 0-223.744-100.352-223.744-223.744S443.904 271.36 567.296 271.36h41.984c123.392 0 223.232 99.84 223.232 223.232 0.512 123.392-99.328 223.744-222.72 223.744z" fill="#CAD3FF" opacity=".2" p-id="1657"></path><path d="M839.68 172.032zM919.552 739.328h-132.096c-14.336 0-25.6-11.264-25.6-25.6s11.264-25.6 25.6-25.6h80.896V138.24H155.648v549.888h283.136c14.336 0 25.6 11.264 25.6 25.6s-11.264 25.6-25.6 25.6H104.448V133.12c0-25.6 20.48-46.08 46.08-46.08h722.944c25.6 0 46.08 20.48 46.08 46.08v606.208z" fill="#4E63DD" p-id="1658"></path><path d="M625.664 739.328H509.952c-14.336 0-25.6-11.264-25.6-25.6s11.264-25.6 25.6-25.6h115.712c14.336 0 25.6 11.264 25.6 25.6s-11.776 25.6-25.6 25.6zM720.896 739.328h-26.624c-14.336 0-25.6-11.264-25.6-25.6s11.264-25.6 25.6-25.6h26.624c14.336 0 25.6 11.264 25.6 25.6s-11.264 25.6-25.6 25.6zM893.952 897.024H130.048c-14.336 0-25.6-11.264-25.6-25.6s11.264-25.6 25.6-25.6h763.904c14.336 0 25.6 11.264 25.6 25.6s-11.264 25.6-25.6 25.6z" fill="#4E63DD" p-id="1659"></path><path d="M800.768 615.424c-6.144 0-12.288-2.048-17.408-6.656l-55.296-51.2h-0.512l-70.656 36.352h-0.512l-63.488-230.4h-0.512l-56.32 209.408H416.256l-51.2-102.912h-0.512L317.44 573.44H224.768c-13.312 0-25.6-9.728-26.624-23.552-1.536-15.36 10.752-27.648 25.6-27.648h60.928l77.824-171.008h0.512L448 522.24H496.64l94.72-351.744h0.512l97.28 348.672h0.512l46.592-24.064h0.512l80.384 74.752c11.264 10.24 12.288 28.16 1.024 38.4-4.608 4.608-10.752 7.168-17.408 7.168z" fill="#4E63DD" opacity=".5" p-id="1660"></path></svg>